<svg width="156" height="48" viewBox="0 0 156 48" fill="none" xmlns="http://www.w3.org/2000/svg" role="img" aria-label="DEE K">
  <title>DEE K</title>
  <path d="M8 37V11h10.7c8.3 0 14.2 5.2 14.2 13s-5.9 13-14.2 13H8Zm8.2-7.1h2c3.9 0 6.4-2.2 6.4-5.9s-2.5-5.9-6.4-5.9h-2v11.8Z" fill="#07142D"/>
  <path d="M38.2 37V11h21.1v6.8H46.4V21h11.9v6.3H46.4v3h13.4V37H38.2Z" fill="#07142D"/>
  <path d="M65.5 37V11h21.1v6.8H73.7V21h11.9v6.3H73.7v3h13.4V37H65.5Z" fill="#07142D"/>
  <path d="M97.7 37V11h8.3v9.8L114.7 11h9.8l-10.3 11.6L125.2 37h-10l-6.8-8.9-2.4 2.7V37h-8.3Z" fill="#FF5A14"/>
  <path d="M135.5 12c0-2.2 1.8-4 4-4h4.5c2.2 0 4 1.8 4 4v24c0 2.2-1.8 4-4 4h-4.5c-2.2 0-4-1.8-4-4V12Z" fill="#FF5A14"/>
  <path d="M139.1 15.4h5.3v17.2h-5.3V15.4Z" fill="white"/>
</svg>
